<svg xmlns="http://www.w3.org/2000/svg" version="1.1" viewBox="0 0 994 992"><path fill="#f4f3e9" d="   M 976.00 963.89   A 12.11 12.11 0.0 0 1 963.89 976.00   L 28.11 976.00   A 12.11 12.11 0.0 0 1 16.00 963.89   L 16.00 28.11   A 12.11 12.11 0.0 0 1 28.11 16.00   L 963.89 16.00   A 12.11 12.11 0.0 0 1 976.00 28.11   L 976.00 963.89   Z   M 944.00 48.56   A 0.56 0.56 0.0 0 0 943.44 48.00   L 48.56 48.00   A 0.56 0.56 0.0 0 0 48.00 48.56   L 48.00 943.44   A 0.56 0.56 0.0 0 0 48.56 944.00   L 943.44 944.00   A 0.56 0.56 0.0 0 0 944.00 943.44   L 944.00 48.56   Z"></path><path fill="#161a21" d="   M 944.00 943.44   A 0.56 0.56 0.0 0 1 943.44 944.00   L 48.56 944.00   A 0.56 0.56 0.0 0 1 48.00 943.44   L 48.00 48.56   A 0.56 0.56 0.0 0 1 48.56 48.00   L 943.44 48.00   A 0.56 0.56 0.0 0 1 944.00 48.56   L 944.00 943.44   Z   M 832.00 172.20   A 12.20 12.20 0.0 0 0 819.80 160.00   L 172.20 160.00   A 12.20 12.20 0.0 0 0 160.00 172.20   L 160.00 819.80   A 12.20 12.20 0.0 0 0 172.20 832.00   L 819.80 832.00   A 12.20 12.20 0.0 0 0 832.00 819.80   L 832.00 172.20   Z"></path><path fill="#f4f3e9" d="   M 832.00 819.80   A 12.20 12.20 0.0 0 1 819.80 832.00   L 172.20 832.00   A 12.20 12.20 0.0 0 1 160.00 819.80   L 160.00 172.20   A 12.20 12.20 0.0 0 1 172.20 160.00   L 819.80 160.00   A 12.20 12.20 0.0 0 1 832.00 172.20   L 832.00 819.80   Z   M 292.00 192.50   A 0.50 0.50 0.0 0 0 291.50 192.00   L 192.50 192.00   A 0.50 0.50 0.0 0 0 192.00 192.50   L 192.00 291.50   A 0.50 0.50 0.0 0 0 192.50 292.00   L 291.50 292.00   A 0.50 0.50 0.0 0 0 292.00 291.50   L 292.00 192.50   Z   M 668.00 682.41   C 668.00 672.28 672.30 667.95 682.51 667.99   Q 710.44 668.10 799.53 667.96   Q 800.00 667.96 800.00 667.48   L 800.00 324.51   Q 800.00 324.02 799.51 324.02   Q 742.77 323.96 686.04 324.01   C 675.39 324.02 667.99 322.70 667.99 310.50   Q 668.01 251.44 668.00 192.47   A 0.48 0.47 0.0 0 0 667.52 192.00   L 324.51 192.00   Q 324.02 192.00 324.02 192.49   Q 323.96 249.66 324.01 306.82   C 324.02 316.31 322.38 324.04 311.49 324.02   Q 252.04 323.95 192.49 324.02   Q 192.00 324.02 192.00 324.51   L 192.00 667.50   A 0.50 0.50 0.0 0 0 192.50 668.00   Q 249.30 668.00 306.09 668.00   C 316.24 668.00 324.04 669.26 324.02 681.01   Q 323.94 740.21 324.02 799.51   Q 324.03 800.00 324.51 800.00   L 667.49 800.00   Q 667.98 800.00 667.98 799.51   Q 668.03 740.89 668.00 682.41   Z   M 800.00 192.27   A 0.27 0.27 0.0 0 0 799.73 192.00   L 700.27 192.00   A 0.27 0.27 0.0 0 0 700.00 192.27   L 700.00 291.73   A 0.27 0.27 0.0 0 0 700.27 292.00   L 799.73 292.00   A 0.27 0.27 0.0 0 0 800.00 291.73   L 800.00 192.27   Z   M 292.00 700.43   A 0.43 0.43 0.0 0 0 291.57 700.00   L 192.43 700.00   A 0.43 0.43 0.0 0 0 192.00 700.43   L 192.00 799.57   A 0.43 0.43 0.0 0 0 192.43 800.00   L 291.57 800.00   A 0.43 0.43 0.0 0 0 292.00 799.57   L 292.00 700.43   Z   M 800.00 700.27   A 0.27 0.27 0.0 0 0 799.73 700.00   L 700.27 700.00   A 0.27 0.27 0.0 0 0 700.00 700.27   L 700.00 799.73   A 0.27 0.27 0.0 0 0 700.27 800.00   L 799.73 800.00   A 0.27 0.27 0.0 0 0 800.00 799.73   L 800.00 700.27   Z"></path><path fill="#161a21" d="   M 292.00 291.50   A 0.50 0.50 0.0 0 1 291.50 292.00   L 192.50 292.00   A 0.50 0.50 0.0 0 1 192.00 291.50   L 192.00 192.50   A 0.50 0.50 0.0 0 1 192.50 192.00   L 291.50 192.00   A 0.50 0.50 0.0 0 1 292.00 192.50   L 292.00 291.50   Z   M 252.63 239.12   A 12.66 12.66 0.0 0 0 239.97 226.46   A 12.66 12.66 0.0 0 0 227.31 239.12   A 12.66 12.66 0.0 0 0 239.97 251.78   A 12.66 12.66 0.0 0 0 252.63 239.12   Z"></path><path fill="#161a21" d="   M 682.51 667.99   C 672.30 667.95 668.00 672.28 668.00 682.41   Q 668.03 740.89 667.98 799.51   Q 667.98 800.00 667.49 800.00   L 324.51 800.00   Q 324.03 800.00 324.02 799.51   Q 323.94 740.21 324.02 681.01   C 324.04 669.26 316.24 668.00 306.09 668.00   Q 249.30 668.00 192.50 668.00   A 0.50 0.50 0.0 0 1 192.00 667.50   L 192.00 324.51   Q 192.00 324.02 192.49 324.02   Q 252.04 323.95 311.49 324.02   C 322.38 324.04 324.02 316.31 324.01 306.82   Q 323.96 249.66 324.02 192.49   Q 324.02 192.00 324.51 192.00   L 667.52 192.00   A 0.48 0.47 0.0 0 1 668.00 192.47   Q 668.01 251.44 667.99 310.50   C 667.99 322.70 675.39 324.02 686.04 324.01   Q 742.77 323.96 799.51 324.02   Q 800.00 324.02 800.00 324.51   L 800.00 667.48   Q 800.00 667.96 799.53 667.96   Q 710.44 668.10 682.51 667.99   Z"></path><path fill="#161a21" d="   M 800.00 291.73   A 0.27 0.27 0.0 0 1 799.73 292.00   L 700.27 292.00   A 0.27 0.27 0.0 0 1 700.00 291.73   L 700.00 192.27   A 0.27 0.27 0.0 0 1 700.27 192.00   L 799.73 192.00   A 0.27 0.27 0.0 0 1 800.00 192.27   L 800.00 291.73   Z   M 764.63 239.12   A 12.66 12.66 0.0 0 0 751.97 226.46   A 12.66 12.66 0.0 0 0 739.31 239.12   A 12.66 12.66 0.0 0 0 751.97 251.78   A 12.66 12.66 0.0 0 0 764.63 239.12   Z"></path><circle fill="#f4f3e9" cx="239.97" cy="239.12" r="12.66"></circle><circle fill="#f4f3e9" cx="751.97" cy="239.12" r="12.66"></circle><path fill="#161a21" d="   M 292.00 799.57   A 0.43 0.43 0.0 0 1 291.57 800.00   L 192.43 800.00   A 0.43 0.43 0.0 0 1 192.00 799.57   L 192.00 700.43   A 0.43 0.43 0.0 0 1 192.43 700.00   L 291.57 700.00   A 0.43 0.43 0.0 0 1 292.00 700.43   L 292.00 799.57   Z   M 252.64 751.13   A 12.66 12.66 0.0 0 0 239.98 738.47   A 12.66 12.66 0.0 0 0 227.32 751.13   A 12.66 12.66 0.0 0 0 239.98 763.79   A 12.66 12.66 0.0 0 0 252.64 751.13   Z"></path><path fill="#161a21" d="   M 800.00 799.73   A 0.27 0.27 0.0 0 1 799.73 800.00   L 700.27 800.00   A 0.27 0.27 0.0 0 1 700.00 799.73   L 700.00 700.27   A 0.27 0.27 0.0 0 1 700.27 700.00   L 799.73 700.00   A 0.27 0.27 0.0 0 1 800.00 700.27   L 800.00 799.73   Z   M 764.63 751.13   A 12.66 12.66 0.0 0 0 751.97 738.47   A 12.66 12.66 0.0 0 0 739.31 751.13   A 12.66 12.66 0.0 0 0 751.97 763.79   A 12.66 12.66 0.0 0 0 764.63 751.13   Z"></path><circle fill="#f4f3e9" cx="239.98" cy="751.13" r="12.66"></circle><circle fill="#f4f3e9" cx="751.97" cy="751.13" r="12.66"></circle></svg>